# Blender v2.78 (sub 0) OBJ File: 'Boat.blend'
# www.blender.org
o Mast
v -0.159509 -1.052405 0.119044
v -0.052746 4.292192 0.052746
v -0.159509 -1.052405 -0.119044
v -0.052746 4.292192 -0.052746
v 0.159509 -1.052405 0.119044
v 0.052746 4.292192 0.052746
v 0.159509 -1.052405 -0.119044
v 0.052746 4.292192 -0.052746
vn -0.9998 0.0200 0.0000
vn 0.0000 0.0124 -0.9999
vn 0.9998 0.0200 0.0000
vn 0.0000 0.0124 0.9999
vn 0.0000 -1.0000 0.0000
vn 0.0000 1.0000 0.0000
s off
f 1//1 2//1 4//1 3//1
f 3//2 4//2 8//2 7//2
f 7//3 8//3 6//3 5//3
f 5//4 6//4 2//4 1//4
f 3//5 7//5 5//5 1//5
f 8//6 4//6 2//6 6//6
